REM DIRINDEX 1\2,1\3,1\4,1\6,1\5\7,1\5\8
REM DIRNAME folder01,folder02,folder03,folder04,folder05,folder06,folder07,folder08
TITLE ""
FILE "DB4500_5th_5C_06.mp3" MP3
  TRACK 01 AUDIO
    TITLE "2:cjc114_3399"
    INDEX 01 00:00:00
  TRACK 02 AUDIO
    TITLE "0:"
    INDEX 01 00:01:21
  TRACK 03 AUDIO
    TITLE "3:cjc114_3400"
    INDEX 01 00:01:34
  TRACK 04 AUDIO
    TITLE "0:"
    INDEX 01 00:02:34
  TRACK 05 AUDIO
    TITLE "4:cjc114_3401"
    INDEX 01 00:02:47
  TRACK 06 AUDIO
    TITLE "0:"
    INDEX 01 00:06:20
  TRACK 07 AUDIO
    TITLE "2:cjc114_3402"
    INDEX 01 00:06:57
  TRACK 08 AUDIO
    TITLE "0:"
    INDEX 01 00:07:68
  TRACK 09 AUDIO
    TITLE "3:cjc114_3403"
    INDEX 01 00:08:07
  TRACK 10 AUDIO
    TITLE "0:"
    INDEX 01 00:09:16
  TRACK 11 AUDIO
    TITLE "4:cjc114_3404"
    INDEX 01 00:09:32
  TRACK 12 AUDIO
    TITLE "0:"
    INDEX 01 00:11:52
  TRACK 13 AUDIO
    TITLE "2:cjc114_3405"
    INDEX 01 00:12:14
  TRACK 14 AUDIO
    TITLE "0:"
    INDEX 01 00:13:22
  TRACK 15 AUDIO
    TITLE "3:cjc114_3406"
    INDEX 01 00:13:37
  TRACK 16 AUDIO
    TITLE "0:"
    INDEX 01 00:14:45
  TRACK 17 AUDIO
    TITLE "4:cjc114_3407"
    INDEX 01 00:14:58
  TRACK 18 AUDIO
    TITLE "0:"
    INDEX 01 00:18:13
  TRACK 19 AUDIO
    TITLE "2:cjc114_3408"
    INDEX 01 00:18:50
  TRACK 20 AUDIO
    TITLE "0:"
    INDEX 01 00:19:63
  TRACK 21 AUDIO
    TITLE "3:cjc114_3409"
    INDEX 01 00:20:02
  TRACK 22 AUDIO
    TITLE "0:"
    INDEX 01 00:22:01
  TRACK 23 AUDIO
    TITLE "4:cjc114_3410"
    INDEX 01 00:22:13
  TRACK 24 AUDIO
    TITLE "0:"
    INDEX 01 00:25:29
  TRACK 25 AUDIO
    TITLE "2:cjc114_3411"
    INDEX 01 00:25:66
  TRACK 26 AUDIO
    TITLE "0:"
    INDEX 01 00:26:67
  TRACK 27 AUDIO
    TITLE "3:cjc114_3412"
    INDEX 01 00:27:06
  TRACK 28 AUDIO
    TITLE "0:"
    INDEX 01 00:28:43
  TRACK 29 AUDIO
    TITLE "4:cjc114_3413"
    INDEX 01 00:28:55
  TRACK 30 AUDIO
    TITLE "0:"
    INDEX 01 00:32:54
  TRACK 31 AUDIO
    TITLE "2:cjc114_3414"
    INDEX 01 00:33:17
  TRACK 32 AUDIO
    TITLE "0:"
    INDEX 01 00:34:30
  TRACK 33 AUDIO
    TITLE "3:cjc114_3415"
    INDEX 01 00:34:45
  TRACK 34 AUDIO
    TITLE "0:"
    INDEX 01 00:36:42
  TRACK 35 AUDIO
    TITLE "4:cjc114_3416"
    INDEX 01 00:36:56
  TRACK 36 AUDIO
    TITLE "0:"
    INDEX 01 00:41:08
  TRACK 37 AUDIO
    TITLE "2:cjc114_3417"
    INDEX 01 00:41:55
  TRACK 38 AUDIO
    TITLE "0:"
    INDEX 01 00:43:07
  TRACK 39 AUDIO
    TITLE "3:cjc114_3418"
    INDEX 01 00:43:29
  TRACK 40 AUDIO
    TITLE "0:"
    INDEX 01 00:44:40
  TRACK 41 AUDIO
    TITLE "4:cjc114_3419"
    INDEX 01 00:44:61
  TRACK 42 AUDIO
    TITLE "0:"
    INDEX 01 00:48:32
  TRACK 43 AUDIO
    TITLE "2:cjc114_3420"
    INDEX 01 00:49:00
  TRACK 44 AUDIO
    TITLE "0:"
    INDEX 01 00:50:27
  TRACK 45 AUDIO
    TITLE "3:cjc114_3421"
    INDEX 01 00:50:48
  TRACK 46 AUDIO
    TITLE "0:"
    INDEX 01 00:52:63
  TRACK 47 AUDIO
    TITLE "4:cjc114_3422"
    INDEX 01 00:53:04
  TRACK 48 AUDIO
    TITLE "0:"
    INDEX 01 00:56:31
  TRACK 49 AUDIO
    TITLE "2:cjc114_3423"
    INDEX 01 00:56:74
  TRACK 50 AUDIO
    TITLE "0:"
    INDEX 01 00:58:20
  TRACK 51 AUDIO
    TITLE "3:cjc114_3424"
    INDEX 01 00:58:40
  TRACK 52 AUDIO
    TITLE "0:"
    INDEX 01 00:59:69
  TRACK 53 AUDIO
    TITLE "4:cjc114_3425"
    INDEX 01 01:00:12
  TRACK 54 AUDIO
    TITLE "0:"
    INDEX 01 01:03:65
  TRACK 55 AUDIO
    TITLE "2:cjc114_3426"
    INDEX 01 01:04:35
  TRACK 56 AUDIO
    TITLE "0:"
    INDEX 01 01:05:52
  TRACK 57 AUDIO
    TITLE "3:cjc114_3427"
    INDEX 01 01:05:71
  TRACK 58 AUDIO
    TITLE "0:"
    INDEX 01 01:07:21
  TRACK 59 AUDIO
    TITLE "4:cjc114_3428"
    INDEX 01 01:07:43
  TRACK 60 AUDIO
    TITLE "0:"
    INDEX 01 01:11:66
  TRACK 61 AUDIO
    TITLE "2:cjc114_3429"
    INDEX 01 01:12:38
  TRACK 62 AUDIO
    TITLE "0:"
    INDEX 01 01:13:51
  TRACK 63 AUDIO
    TITLE "3:cjc114_3430"
    INDEX 01 01:13:71
  TRACK 64 AUDIO
    TITLE "0:"
    INDEX 01 01:16:11
  TRACK 65 AUDIO
    TITLE "4:cjc114_3431"
    INDEX 01 01:16:32
  TRACK 66 AUDIO
    TITLE "0:"
    INDEX 01 01:19:01
  TRACK 67 AUDIO
    TITLE "2:cjc114_3432"
    INDEX 01 01:19:46
  TRACK 68 AUDIO
    TITLE "0:"
    INDEX 01 01:20:69
  TRACK 69 AUDIO
    TITLE "3:cjc114_3433"
    INDEX 01 01:21:14
  TRACK 70 AUDIO
    TITLE "0:"
    INDEX 01 01:22:50
  TRACK 71 AUDIO
    TITLE "4:cjc114_3434"
    INDEX 01 01:22:74
  TRACK 72 AUDIO
    TITLE "0:"
    INDEX 01 01:25:68
